<?xml version="1.0" encoding="iso-8859-1"?>
<!-- Generator: Adobe Illustrator 19.0.0, SVG Export Plug-In . SVG Version: 6.00 Build 0)  -->
<svg version="1.1" id="Layer_1" xmlns="http://www.w3.org/2000/svg" xmlns:xlink="http://www.w3.org/1999/xlink" x="0px" y="0px"
	 viewBox="0 0 395.5 395.5" style="enable-background:new 0 0 395.5 395.5;" xml:space="preserve">
<g id="XMLID_1564_">
	<path id="XMLID_1565_" style="fill:#FFE165;" d="M365.604,232.191c3.969,0,7.227-2.487,7.229-5.571c0-0.019,0-0.038,0-0.057l0,0
		c0-70.943-74.676-128.988-165.947-128.988h-18.273c-91.271,0-165.947,58.045-165.947,128.988l0,0c0,0.019,0,0.038,0,0.057
		c0.002,3.085,3.261,5.571,7.229,5.571H365.604z"/>
	<path id="XMLID_1566_" style="fill:#5FD2DB;" d="M36.994,193.426c-1.232-13.936-2.507-28.35,4.596-37.613
		c4.537-5.922,15.023-8.316,26.123-10.856c9.377-2.138,19.072-4.355,27.559-9.064c7.723-4.288,14.103-11.418,20.275-18.312
		c7.801-8.717,15.17-16.949,24.193-19.052c7.379-1.723,16.876,1.826,26.93,5.578c9.748,3.638,19.832,7.4,30.307,7.4
		s20.556-3.762,30.302-7.4c10.059-3.751,19.551-7.3,26.93-5.578c9.024,2.102,16.393,10.335,24.193,19.052
		c6.172,6.894,12.552,14.024,20.275,18.312c8.487,4.704,18.182,6.921,27.564,9.07c11.1,2.535,21.581,4.929,26.124,10.851
		c7.098,9.263,5.828,23.677,4.589,37.613c-0.478,5.438-0.978,11.064-0.978,16.393c0,0.915,0.156,1.821,0.462,2.68
		c1.842,5.177,5.782,21.788,0,29.984c-0.609,0.865-2.013,2.827-5.599,4.163l-307.351-1.248c-3.299-1.551-5.51-34.47-5.51-35.579
		C37.978,204.484,37.479,198.864,36.994,193.426L36.994,193.426z"/>
	<path id="XMLID_1567_" style="fill:#FF5959;" d="M355.602,247.151c3.732,0,6.797-2.338,6.799-5.239c0-0.018,0-0.035,0-0.053l0,0
		c0-66.716-70.226-121.302-156.059-121.302h-17.184c-85.832,0-156.059,54.586-156.059,121.302l0,0c0,0.018,0,0.035,0,0.053
		c0.002,2.901,3.066,5.239,6.799,5.239H355.602z"/>
	<g id="XMLID_1568_">
		<circle id="XMLID_1569_" style="fill:#FFA250;" cx="95.7" cy="183.174" r="40.371"/>
		<circle id="XMLID_1570_" style="fill:#FFA250;" cx="197.75" cy="161.175" r="40.371"/>
		<circle id="XMLID_1571_" style="fill:#FFA250;" cx="299.8" cy="183.174" r="40.371"/>
	</g>
	<g id="XMLID_1572_">
		<path id="XMLID_1573_" style="fill:#FFE165;" d="M387.335,297.924c4.482,0,8.163-2.809,8.165-6.293c0-0.021,0-0.043,0-0.064l0,0
			c0-80.128-84.344-145.687-187.431-145.687H187.43C84.344,145.882,0,211.441,0,291.569l0,0c0,0.021,0,0.043,0,0.064
			c0.002,3.484,3.683,6.293,8.165,6.293h379.17V297.924z"/>
		<circle id="XMLID_1574_" style="fill:#FFFEB9;" cx="48.719" cy="226.046" r="10.288"/>
		<circle id="XMLID_1575_" style="fill:#FFFEB9;" cx="30.429" cy="258.337" r="10.288"/>
		<circle id="XMLID_1576_" style="fill:#FFFEB9;" cx="61.717" cy="271.674" r="10.288"/>
	</g>
</g>
<g>
</g>
<g>
</g>
<g>
</g>
<g>
</g>
<g>
</g>
<g>
</g>
<g>
</g>
<g>
</g>
<g>
</g>
<g>
</g>
<g>
</g>
<g>
</g>
<g>
</g>
<g>
</g>
<g>
</g>
</svg>
